<svg width="20" height="18" viewBox="0 0 20 18" fill="none" xmlns="http://www.w3.org/2000/svg">
<path d="M19.7031 6.22929C19.439 5.89796 19.0428 5.70788 18.616 5.70788H14.7643L12.6756 0.925344C12.5461 0.62882 12.2007 0.493313 11.9042 0.622883C11.6076 0.752375 11.4722 1.0978 11.6017 1.39437L13.4855 5.70792H6.51449L8.39828 1.39437C8.52778 1.0978 8.39239 0.752414 8.09582 0.622883C7.7993 0.493313 7.45387 0.628742 7.32438 0.925344L5.23574 5.70792H1.38403C0.957229 5.70792 0.561018 5.89796 0.296917 6.22933C0.0376587 6.55464 -0.0580054 6.97284 0.0344556 7.37683L2.09137 16.3612C2.235 16.9885 2.78996 17.4267 3.44094 17.4267H16.5591C17.21 17.4267 17.765 16.9885 17.9086 16.3612L19.9655 7.37679C20.058 6.9728 19.9623 6.5546 19.7031 6.22929ZM16.5591 16.2548H3.44094C3.34145 16.2548 3.2543 16.1895 3.23371 16.0996L1.1768 7.1153C1.16067 7.0448 1.18774 6.99175 1.21336 6.95968C1.23711 6.92984 1.2909 6.8798 1.38403 6.8798H4.72399L4.57051 7.23124C4.44102 7.5278 4.57641 7.8732 4.87297 8.00273C4.9493 8.03609 5.02883 8.05187 5.10715 8.05187C5.33301 8.05187 5.54824 7.9205 5.64442 7.7003L6.00274 6.87988H13.9973L14.3557 7.7003C14.4518 7.92054 14.6671 8.05187 14.8929 8.05187C14.9712 8.05187 15.0508 8.03609 15.1271 8.00273C15.4237 7.87323 15.5591 7.5278 15.4296 7.23124L15.2761 6.8798H18.6161C18.7092 6.8798 18.763 6.92984 18.7867 6.95968C18.8123 6.99179 18.8394 7.04484 18.8233 7.11527L16.7664 16.0996C16.7457 16.1895 16.6586 16.2548 16.5591 16.2548Z" fill="#6F73EE"/>
<path d="M19.7031 6.22929C19.439 5.89796 19.0428 5.70788 18.616 5.70788H14.7643L12.6756 0.925344C12.5461 0.62882 12.2007 0.493313 11.9042 0.622883C11.6076 0.752375 11.4722 1.0978 11.6017 1.39437L13.4855 5.70792H6.51449L8.39828 1.39437C8.52778 1.0978 8.39239 0.752414 8.09582 0.622883C7.7993 0.493313 7.45387 0.628742 7.32438 0.925344L5.23574 5.70792H1.38403C0.957229 5.70792 0.561018 5.89796 0.296917 6.22933C0.0376587 6.55464 -0.0580054 6.97284 0.0344556 7.37683L2.09137 16.3612C2.235 16.9885 2.78996 17.4267 3.44094 17.4267H16.5591C17.21 17.4267 17.765 16.9885 17.9086 16.3612L19.9655 7.37679C20.058 6.9728 19.9623 6.5546 19.7031 6.22929ZM16.5591 16.2548H3.44094C3.34145 16.2548 3.2543 16.1895 3.23371 16.0996L1.1768 7.1153C1.16067 7.0448 1.18774 6.99175 1.21336 6.95968C1.23711 6.92984 1.2909 6.8798 1.38403 6.8798H4.72399L4.57051 7.23124C4.44102 7.5278 4.57641 7.8732 4.87297 8.00273C4.9493 8.03609 5.02883 8.05187 5.10715 8.05187C5.33301 8.05187 5.54824 7.9205 5.64442 7.7003L6.00274 6.87988H13.9973L14.3557 7.7003C14.4518 7.92054 14.6671 8.05187 14.8929 8.05187C14.9712 8.05187 15.0508 8.03609 15.1271 8.00273C15.4237 7.87323 15.5591 7.5278 15.4296 7.23124L15.2761 6.8798H18.6161C18.7092 6.8798 18.763 6.92984 18.7867 6.95968C18.8123 6.99179 18.8394 7.04484 18.8233 7.11527L16.7664 16.0996C16.7457 16.1895 16.6586 16.2548 16.5591 16.2548Z" stroke="#6F73EE"/>
</svg>
