<svg width="18" height="18" viewBox="0 0 18 18" fill="none" xmlns="http://www.w3.org/2000/svg">
<path d="M17.4884 8.86431L9.94149 1.32134L9.43563 0.815479C9.32037 0.70098 9.1645 0.636719 9.00203 0.636719C8.83957 0.636719 8.6837 0.70098 8.56844 0.815479L0.515706 8.86431C0.397603 8.98195 0.304264 9.12206 0.241198 9.27637C0.178133 9.43068 0.14662 9.59606 0.148518 9.76274C0.156331 10.4502 0.728597 10.9991 1.4161 10.9991H2.24617V17.3604H15.7579V10.9991H16.6055C16.9395 10.9991 17.254 10.8682 17.4903 10.6319C17.6067 10.5159 17.6989 10.378 17.7616 10.2261C17.8243 10.0742 17.8562 9.91142 17.8555 9.74712C17.8555 9.41509 17.7247 9.10063 17.4884 8.86431ZM10.0958 15.9542H7.90828V11.9698H10.0958V15.9542ZM14.3516 9.59282V15.9542H11.3458V11.501C11.3458 11.0694 10.9962 10.7198 10.5645 10.7198H7.43953C7.00789 10.7198 6.65828 11.0694 6.65828 11.501V15.9542H3.65242V9.59282H1.77742L9.00399 2.37212L9.45516 2.82329L16.2286 9.59282H14.3516Z" fill="#5D6C7B"/>
</svg>
