<svg width="18" height="18" viewBox="0 0 18 18" fill="none" xmlns="http://www.w3.org/2000/svg">
<path d="M8.11556 0.609375C3.9833 0.609375 0.617188 3.97548 0.617188 8.10776C0.617188 12.24 3.9833 15.6127 8.11556 15.6127C9.88058 15.6127 11.5038 14.9941 12.7868 13.9671L15.9102 17.0889C16.0678 17.24 16.2783 17.3233 16.4966 17.3211C16.715 17.3189 16.9237 17.2312 17.0782 17.0769C17.2327 16.9227 17.3207 16.714 17.3232 16.4957C17.3257 16.2774 17.2427 16.0667 17.0918 15.9089L13.9684 12.7856C14.9963 11.5006 15.6156 9.87481 15.6156 8.10776C15.6156 3.97548 12.2478 0.609375 8.11556 0.609375ZM8.11556 2.27607C11.3471 2.27607 13.9473 4.87623 13.9473 8.10776C13.9473 11.3393 11.3471 13.946 8.11556 13.946C4.88403 13.946 2.28385 11.3393 2.28385 8.10776C2.28385 4.87623 4.88403 2.27607 8.11556 2.27607Z" fill="#6F73EE"/>
</svg>
