<svg width="18" height="16" viewBox="0 0 18 16" fill="none" xmlns="http://www.w3.org/2000/svg">
<path d="M8.47243 3.56443V0.236084C6.43963 0.352768 4.53332 1.14269 3.01172 2.49878L5.36494 4.85199C6.25052 4.11477 7.32585 3.6692 8.47243 3.56443Z" fill="#5D6C7B"/>
<path d="M4.61876 5.59756L2.26557 3.24438C0.908332 4.76556 0.117422 6.672 0 8.7053H3.32849C3.43396 7.55847 3.88044 6.48308 4.61876 5.59756Z" fill="#5D6C7B"/>
<path d="M14.6711 8.7053H17.9996C17.8822 6.672 17.0913 4.76556 15.734 3.24438L13.3809 5.59756C14.1192 6.48304 14.5657 7.55847 14.6711 8.7053Z" fill="#5D6C7B"/>
<path d="M14.6696 9.76001C14.4951 11.6759 13.4434 12.8449 13.0258 13.2625C12.8195 13.4687 12.8195 13.8032 13.0258 14.0095L14.6259 15.6097C14.729 15.7128 14.8642 15.7644 14.9994 15.7644C15.1346 15.7644 15.2697 15.7128 15.3729 15.6097C16.9523 14.0305 17.8732 11.9698 17.9992 9.76001H14.6696Z" fill="#5D6C7B"/>
<path d="M3.27189 12.7858C3.41919 12.5543 3.64215 12.2058 3.90962 11.7933C3.63544 11.2499 3.40358 10.5723 3.32965 9.76001H0C0.126035 11.9698 1.04695 14.0305 2.62628 15.6097C2.72943 15.7128 2.8646 15.7644 2.99978 15.7644C3.13495 15.7644 3.27016 15.7128 3.37331 15.6097L3.92119 15.0618C3.76249 14.9854 3.61607 14.8821 3.48785 14.7539C2.95952 14.2255 2.87068 13.4162 3.27189 12.7858Z" fill="#5D6C7B"/>
<path d="M9.52734 0.236084V3.56443C10.6739 3.6692 11.7493 4.11473 12.6348 4.85199L14.9881 2.49878C13.4665 1.14266 11.5601 0.352768 9.52734 0.236084Z" fill="#5D6C7B"/>
<path d="M7.82921 8.06998C7.01302 8.88617 4.45188 12.8973 4.16254 13.352C4.02983 13.5605 4.05978 13.8332 4.23454 14.008C4.4093 14.1828 4.68201 14.2127 4.89056 14.08C5.34524 13.7907 9.35643 11.2296 10.1726 10.4134C10.8187 9.76732 10.8187 8.71608 10.1726 8.07002C9.52655 7.42395 8.47527 7.42392 7.82921 8.06998Z" fill="#5D6C7B"/>
</svg>
