<svg width="22" height="16" viewBox="0 0 22 16" fill="none" xmlns="http://www.w3.org/2000/svg">
<path d="M20.7292 6.88244H20.2305L19.4223 3.50175C19.3089 3.01165 18.879 2.66949 18.3751 2.66949H15.0894V2.02466C15.0894 1.19497 14.4145 0.52002 13.5848 0.52002H1.50464C0.674953 0.519977 0 1.19493 0 2.02461V12.0412C0 12.8705 0.674953 13.5459 1.50464 13.5459H2.73629C3.02345 14.6572 4.03459 15.4804 5.23398 15.4804C6.43341 15.4804 7.44451 14.6572 7.73167 13.5459H14.6122C14.8993 14.6572 15.9105 15.4804 17.1099 15.4804C18.3092 15.4804 19.3204 14.6572 19.6075 13.5459H20.4953C21.325 13.5459 21.9999 12.8709 21.9999 12.0412V8.15325C22 7.45251 21.43 6.88244 20.7292 6.88244ZM18.2053 3.95915L18.9043 6.88244H15.0894V3.95915H18.2053ZM1.28971 12.0412V10.1549H2.66002C3.01615 10.1549 3.30486 9.86615 3.30486 9.51003C3.30486 9.1539 3.01615 8.8652 2.66002 8.8652H1.28971V2.02461C1.28971 1.90598 1.386 1.80968 1.50464 1.80968H13.5847C13.7034 1.80968 13.7997 1.90598 13.7997 2.02461V12.2562H7.73171C7.44455 11.1449 6.43341 10.3216 5.23402 10.3216C4.03459 10.3216 3.0235 11.1449 2.73634 12.2562H1.50464C1.386 12.2562 1.28971 12.1594 1.28971 12.0412ZM5.23398 14.1907C4.5228 14.1907 3.94427 13.6115 3.94427 12.901C3.94427 11.5861 5.69254 11.1204 6.35039 12.2562C6.58023 12.6506 6.58281 13.1455 6.35039 13.5459C6.12691 13.931 5.71033 14.1907 5.23398 14.1907ZM17.1099 14.1907C16.1174 14.1907 15.4982 13.1092 15.9934 12.2562C16.6538 11.1161 18.3996 11.5893 18.3996 12.901C18.3996 13.6086 17.8235 14.1907 17.1099 14.1907ZM20.7103 12.0412C20.7103 12.1599 20.614 12.2562 20.4954 12.2562H19.6076C19.3205 11.1449 18.3093 10.3216 17.1099 10.3216C16.2927 10.3216 15.5627 10.7038 15.0894 11.2992V8.17211H20.7103V12.0412H20.7103Z" fill="#282739"/>
<path d="M6.21079 8.80871C6.45107 9.08341 6.87131 9.10417 7.13746 8.85439L10.0178 6.15118C10.2774 5.90746 10.2904 5.49939 10.0467 5.23969C9.80302 4.98003 9.39495 4.96705 9.1352 5.21077L6.74184 7.45692L5.99934 6.60803C5.76486 6.33994 5.35748 6.31274 5.08944 6.54718C4.8214 6.78166 4.79416 7.18905 5.02859 7.45709L6.21079 8.80871Z" fill="#282739"/>
</svg>
